<?xml version="1.0" encoding="UTF-8" standalone="no"?>
<!-- Created with Inkscape (http://www.inkscape.org/) -->

<svg
   xmlns="http://www.w3.org/2000/svg"
   width="348.509mm"
   height="348.25299mm"
   viewBox="0 0 348.509 348.253"
   version="1.1"
   id="svg8">
  <g
     id="layer1"
     transform="translate(96.393783,-6.6799525)">
    <path
       style="fill:#000000;stroke-width:0.35277778"
       d="M 63.148217,354.93295 43.242153,300.30361 20.960443,291.46928 -30.937555,317.52381 -55.802698,293.5149 -31.095505,240.77756 -41.844518,218.1878 -96.393783,200.48035 V 165.8737 l 54.605844,-19.7717 8.74654,-22.32418 -26.04545,-52.012629 23.975357,-24.849324 52.796695,24.706051 22.06857,-9.5075 18.212934,-55.4344655 h 34.733014 l 20.173689,54.4776975 21.92914,8.538823 51.87946,-26.056932 24.86775,23.951032 -24.72731,52.808097 9.71262,22.14858 55.58015,18.13915 v 34.6089 l -54.53114,19.91542 -8.83425,22.2842 26.04531,51.88789 -23.98703,24.85382 -52.76574,-24.69193 -22.14686,9.71734 -18.137375,55.67091 z M 117.8828,240.33092 c 8.05701,-5.26183 14.97459,-12.52356 20.26223,-20.56366 5.01339,-7.62312 8.55226,-16.40672 10.29147,-25.36334 1.78509,-9.1927 1.80303,-18.91446 -0.0526,-28.0932 -1.65864,-8.20493 -5.15308,-16.13795 -9.71127,-23.15897 -5.62217,-8.6598 -12.71323,-16.71114 -21.21731,-22.56617 -7.63764,-5.25853 -16.63487,-8.7749 -25.732412,-10.56936 -9.159158,-1.80661 -18.856335,-1.84297 -28.006884,0.007 -9.131552,1.84586 -18.031596,5.64259 -25.75699,10.84938 -7.791747,5.25151 -14.674693,12.15824 -19.891786,19.97306 -5.190906,7.77565 -8.935887,16.73077 -10.7649106,25.89921 -1.8253759,9.15018 -1.8446764,18.8457 0.00306,27.99138 1.8449009,9.13164 5.6591146,18.01982 10.8473686,25.75755 5.208091,7.76733 12.015489,14.68629 19.785088,19.891 7.825998,5.2425 16.87112,8.97601 26.111312,10.806 8.319422,1.64763 17.103322,1.50751 25.443001,-0.0343 9.959336,-1.8413 19.910583,-5.28729 28.390523,-10.82529 z"
       id="path826" />
  </g>
</svg>
