<?xml version="1.0" encoding="UTF-8" standalone="no"?>
<!-- Created with Inkscape (http://www.inkscape.org/) -->

<svg
   xmlns:dc="http://purl.org/dc/elements/1.1/"
   xmlns:cc="http://creativecommons.org/ns#"
   xmlns:rdf="http://www.w3.org/1999/02/22-rdf-syntax-ns#"
   xmlns:svg="http://www.w3.org/2000/svg"
   xmlns="http://www.w3.org/2000/svg"
   xmlns:sodipodi="http://sodipodi.sourceforge.net/DTD/sodipodi-0.dtd"
   xmlns:inkscape="http://www.inkscape.org/namespaces/inkscape"
   width="367.65848mm"
   height="367.54144mm"
   viewBox="0 0 367.65847 367.54144"
   version="1.1"
   id="svg8"
   inkscape:version="0.92.4 (5da689c313, 2019-01-14)"
   sodipodi:docname="mine.svg">
  <defs
     id="defs2">
    <filter
       style="color-interpolation-filters:sRGB"
       inkscape:label="Lightness-Contrast"
       id="filter1488">
      <feColorMatrix
         values="4.255 0 0 -0.46533 -1.6275 0 4.255 0 -0.46533 -1.6275 0 0 4.255 -0.46533 -1.6275 0 0 0 1 0"
         id="feColorMatrix1486" />
    </filter>
  </defs>
  <sodipodi:namedview
     id="base"
     pagecolor="#ffffff"
     bordercolor="#666666"
     borderopacity="1.0"
     inkscape:pageopacity="0.0"
     inkscape:pageshadow="2"
     inkscape:zoom="0.5"
     inkscape:cx="355.23174"
     inkscape:cy="691.31018"
     inkscape:document-units="mm"
     inkscape:current-layer="layer1"
     showgrid="false"
     inkscape:window-width="1920"
     inkscape:window-height="1017"
     inkscape:window-x="-8"
     inkscape:window-y="-8"
     inkscape:window-maximized="1" />
  <metadata
     id="metadata5">
    <rdf:RDF>
      <cc:Work
         rdf:about="">
        <dc:format>image/svg+xml</dc:format>
        <dc:type
           rdf:resource="http://purl.org/dc/dcmitype/StillImage" />
        <dc:title />
      </cc:Work>
    </rdf:RDF>
  </metadata>
  <g
     inkscape:label="Layer 1"
     inkscape:groupmode="layer"
     id="layer1"
     transform="translate(290.91867,32.312034)">
    <g
       id="g860"
       transform="translate(-224.51785,9.0714282)"
       style="filter:url(#filter1488)">
      <path
         style="fill:#a8a8a8;stroke-width:0.35277778"
         d="m 111.21963,325.76504 -4.71827,-0.31281 -4.05576,-2.18669 c -5.609093,-3.02423 -6.511632,-4.15989 -8.01303,-10.08289 -0.881538,-3.47765 -1.636211,-11.43862 -2.520939,-26.5931 -0.336995,-5.77241 -0.438588,-5.90861 -5.305122,-7.11249 -15.185654,-3.7566 -28.717859,-9.19624 -41.400548,-16.64205 -2.23132,-1.30997 -4.606449,-2.67455 -5.278064,-3.0324 -2.495994,-1.3299 -2.795506,-1.17698 -10.299569,5.2584 -12.686237,10.87955 -14.567975,12.40749 -17.911105,14.54352 l -3.3262396,2.12523 H 5.6611255 c -2.2909635,0 -3.3602012,-0.2258 -6.65051704,-1.40447 -2.15636466,-0.77246 -4.25095086,-1.58123 -4.65463446,-1.79728 -1.8002708,-0.96348 -10.207649,-8.89278 -11.102117,-10.47081 -0.521653,-0.9203 -1.465298,-2.46702 -2.096986,-3.43716 -0.63169,-0.97014 -1.730145,-3.47902 -2.441014,-5.57528 -1.232714,-3.63515 -1.275774,-3.91871 -0.931195,-6.13202 0.308522,-1.98168 0.737189,-2.90255 2.935044,-6.30507 1.477673,-2.2876 4.615709,-6.28659 7.36855,-9.39021 8.5179392,-9.60332 12.66770634,-14.81569 12.66770634,-15.91145 0,-0.38657 -1.13673462,-2.54655 -2.52607934,-4.79997 -3.1584263,-5.12274 -9.57085,-17.93423 -10.366756,-20.71193 -0.328175,-1.14532 -1.449391,-4.25907 -2.491591,-6.91943 -1.042201,-2.66037 -2.841907,-8.1266 -3.999347,-12.1472 -1.578349,-5.48271 -2.320127,-7.52586 -2.967238,-8.17297 -1.000217,-1.00022 -1.169144,-1.02042 -18.178959,-2.174 -8.606007,-0.58365 -11.417769,-0.90385 -14.256999,-1.62356 -1.945213,-0.49308 -3.94735,-1.11221 -4.449194,-1.37583 -1.20305,-0.63197 -3.456912,-2.9809 -4.473035,-4.66169 -1.91177,-3.16232 -2.228268,-4.03898 -2.845202,-7.88085 -1.169991,-7.28597 -0.586567,-16.9913 1.324444,-22.03226 1.00965,-2.66331 3.389517,-5.92979 5.214729,-7.15747 2.397749,-1.61278 8.557468,-2.9678 15.565229,-3.42405 1.843264,-0.12 5.177014,-0.36895 7.408333,-0.55321 2.231319,-0.18426 6.342927,-0.48176 9.136902,-0.66112 6.70422,-0.43037 6.277416,0.0158 8.5159,-8.90336 1.608183,-6.40779 3.867982,-12.857424 7.64389,-21.816237 1.6961798,-4.024397 7.3143033,-15.246826 8.7802749,-17.538954 1.60607718,-2.511189 2.96469844,-5.24426 2.96469844,-5.963938 0,-0.78142 -1.33058248,-2.529356 -4.39813684,-5.777663 -2.492135,-2.638983 -5.1569512,-5.692116 -8.4674985,-9.701389 -0.961281,-1.164167 -2.478127,-2.930335 -3.370771,-3.924819 -0.892648,-0.994484 -2.782429,-3.733863 -4.199516,-6.087516 l -2.576526,-4.27936 0.151288,-3.437488 c 0.191725,-4.356297 1.241842,-6.96408 4.858311,-12.06477 3.286139,-4.634784 6.066338,-7.419735 10.0971102,-10.1143651 C -1.3500821,3.5234315 4.5619123,1.8967273 8.0696099,3.2129447 10.383698,4.0812754 15.382714,7.0344805 17.512906,8.7916384 19.51039,10.439329 29.670496,19.203793 34.028384,23.038467 c 1.738359,1.529651 3.210126,2.547408 3.698568,2.557639 0.972238,0.02036 1.818764,-0.400043 7.2009,-3.576126 4.399386,-2.596149 14.570417,-7.624445 20.823067,-10.294398 4.080637,-1.7424719 14.410256,-4.9463891 20.710532,-6.4237413 5.148343,-1.2072338 5.164345,-1.2280053 5.485345,-7.1198246 0.134701,-2.4724219 0.611692,-8.9403101 1.059973,-14.3730871 0.733817,-8.893101 0.928254,-10.229449 1.950512,-13.405556 1.699567,-5.280478 3.135732,-6.971525 8.275019,-9.743621 2.37858,-1.282988 3.02405,-1.461977 6.43985,-1.785751 5.8361,-0.553187 16.68431,-0.165511 19.36241,0.691943 2.09527,0.670846 6.50844,3.251216 8.19172,4.78967 2.79929,2.558437 3.65753,7.483551 5.14314,29.5147909 0.51044,7.5699197 0.76112,9.0362969 1.66575,9.7440574 0.81538,0.6379104 5.52277,2.1503851 11.41384,3.6672096 5.42015,1.3955783 10.25031,3.0174531 15.52222,5.2120521 4.37607,1.821684 15.39011,7.474331 20.14069,10.336653 2.54017,1.530495 5.0008,2.781702 5.46805,2.780457 0.56487,-0.0014 2.15015,-1.129178 4.73015,-3.364727 3.85205,-3.337786 12.72498,-10.88304 15.49093,-13.1730225 2.13216,-1.7652471 7.96537,-5.4943128 9.34434,-5.9736813 1.81794,-0.6319591 4.08249,-0.4988137 7.96943,0.4685594 3.03756,0.7559781 3.96304,1.1769125 6.70278,3.0486315 4.04929,2.7663669 4.41286,3.1028499 9.1652,8.4822519 3.74357,4.237507 4.03768,4.684152 5.45927,8.290278 1.44766,3.672226 1.49754,3.928135 1.36511,7.004876 l -0.13744,3.193404 -2.17548,3.509374 c -2.27993,3.677916 -13.41984,16.972847 -18.47208,22.045471 -1.53211,1.538316 -2.78567,2.924337 -2.78567,3.080046 0,0.155713 0.97589,1.86453 2.1686,3.797371 5.63491,9.131455 10.23563,18.585988 13.6562,28.063645 2.30921,6.398329 3.20608,9.352589 5.39887,17.783949 0.80208,3.08396 0.86763,3.19616 2.28615,3.91293 1.14663,0.5794 2.4349,0.79001 5.99679,0.98037 2.49506,0.13334 5.09207,0.38097 5.77117,0.55029 0.67909,0.16932 4.25097,0.49383 7.9375,0.72114 6.27563,0.38694 13.52677,1.52739 16.13175,2.53718 1.59702,0.61907 5.38282,5.16726 6.57507,7.89913 1.88715,4.32415 2.57143,12.25885 1.65245,19.1602 -0.95212,7.14968 -1.09199,7.62905 -3.1459,10.78 -3.02193,4.63608 -3.97055,5.27216 -9.74041,6.53145 -3.08867,0.67411 -6.05588,0.93609 -24.28536,2.14417 -6.14048,0.40694 -6.94034,0.57532 -7.92455,1.66827 -0.35927,0.39898 -1.6733,4.53492 -3.06705,9.65368 -2.92781,10.75281 -3.02828,11.04161 -6.81976,19.60098 -3.12741,7.06019 -4.00674,8.79514 -8.49655,16.76417 -2.95384,5.2428 -3.43626,6.44469 -3.01787,7.51874 0.25753,0.66111 5.32127,6.74339 12.51148,15.02805 4.69631,5.4112 5.52816,6.50078 7.84634,10.27744 2.61641,4.26259 2.92216,5.98343 1.8519,10.42338 -0.84042,3.48665 -1.15721,4.1328 -4.13416,8.4324 -1.90024,2.74451 -3.24288,4.13011 -7.81318,8.06328 -6.62118,5.69814 -8.85691,6.85151 -13.80892,7.12377 -3.53445,0.19432 -4.70542,-0.1406 -8.69926,-2.48811 -2.47547,-1.45506 -13.17681,-10.15794 -20.22852,-16.45093 -3.38773,-3.02321 -4.17707,-3.54726 -5.34317,-3.54726 -0.52843,0 -3.2826,1.278 -6.18332,2.86918 -13.18446,7.23234 -15.70291,8.49203 -21.04933,10.5287 -6.49217,2.47314 -13.90216,4.74747 -24.10647,7.39896 -1.29127,0.33552 -1.53747,0.56643 -1.99972,1.87554 -0.31404,0.8895 -0.69476,4.20204 -0.94195,8.19568 -1.30143,21.02862 -2.03038,25.62091 -4.59426,28.94422 -2.89556,3.75313 -7.09539,5.87653 -13.2081,6.67783 -4.44826,0.58315 -6.02914,0.59786 -13.19334,0.12295 z"
         id="path866"
         inkscape:connector-curvature="0" />
      <path
         style="fill:#919191;stroke-width:0.35277778"
         d="m 113.12869,325.96611 -6.61419,-0.40917 -4.055,-2.22205 c -3.639217,-1.99421 -5.478859,-3.19602 -6.53961,-5.4397 -0.44925,-0.70263 -1.045449,-2.68229 -1.557178,-4.70106 -0.902907,-3.56192 -1.594332,-10.90927 -2.462596,-25.84597 -0.380982,-6.55403 -0.376454,-6.61278 -6.090064,-7.99958 -6.144041,-1.49126 -17.386151,-5.17563 -22.18807,-7.21751 -6.04707,-2.57135 -13.24796,-6.21891 -18.549656,-9.33146 -2.23132,-1.30997 -4.626367,-2.60214 -5.297982,-2.95999 -2.584502,-1.37705 -2.105374,-1.5631 -13.696001,8.33847 -5.863417,5.00896 -12.574595,10.88792 -14.365132,12.03933 -2.9907198,1.9232 -3.3222276,1.51234 -5.0637408,1.78987 -2.2217802,0.17316 -3.3257353,-0.0638 -6.97546466,-1.30257 -2.23131934,-0.75731 -4.84219534,-1.82315 -5.33997184,-2.07981 -1.1415606,-0.58859 -8.3459487,-7.38915 -9.6963677,-8.76013 -1.066472,-1.08271 -2.054177,-2.56432 -2.969064,-4.25574 -1.398447,-2.41427 -1.991905,-3.96946 -2.15982,-5.76759 l 0.68962,-2.04086 2.896295,-2.74878 c 1.592965,-1.51183 3.19634,-2.95893 3.563063,-3.21579 0.366719,-0.25687 3.5129714,-3.67679 6.9916706,-7.59984 3.4786993,-3.92304 7.532645,-8.31946 9.008773,-9.76981 2.0477479,-2.01199 2.6838697,-2.86594 2.6838697,-3.60291 0,-1.36673 -1.271681,-4.15486 -2.7243104,-6.26662 -0.7513073,-1.09221 -1.640527,-1.92868 -1.640527,-2.58026 0,-0.69972 -0.79925912,-2.1981 -2.2254197,-4.5166 -4.6957508,-7.63387 -10.0616372,-18.15531 -11.2905912,-22.70988 -0.423422,-1.56921 -1.548396,-4.34892 -2.418282,-6.64672 -0.869887,-2.29779 -2.306901,-6.88485 -3.336274,-9.98929 -2.641138,-7.96528 -2.692851,-9.48298 -4.122451,-10.0624 -0.638316,-0.25871 -2.568475,-0.60668 -4.411738,-0.73242 -22.867722,-1.56002 -24.365121,-1.78954 -27.727365,-2.66312 -4.921638,-1.27875 -6.269204,-2.27782 -8.81047,-6.50733 -1.654641,-2.75389 -2.974756,-5.22953 -1.886908,-10.39388 l 0.855481,-4.06123 2.403556,-4.92161 c 2.995987,-6.13469 4.722619,-8.03585 8.950579,-9.85532 l 2.822222,-1.21452 h 11.641666 c 13.821357,0 13.214258,-0.15189 15.153389,3.79115 1.445003,2.93826 2.659705,7.95424 3.526826,14.5636 0.330178,2.51669 0.975716,6.63956 1.434528,9.16192 0.458812,2.52236 0.938548,5.37986 1.066084,6.35 0.127533,0.97014 0.472916,2.87514 0.767517,4.23333 0.83723,3.85985 1.500332,4.28232 2.630131,1.6757 2.167209,-5.00011 5.1012586,-10.67998 7.6993858,-14.90486 1.6108079,-2.61938 3.9391377,-6.48141 5.1740609,-8.58229 1.23492328,-2.10088 3.4794118,-5.35525 4.987752,-7.23194 1.5083437,-1.87669 3.520013,-4.52341 4.4703787,-5.88161 0.9503656,-1.35819 2.2246876,-3.10444 2.8318216,-3.88055 5.287687,-6.75932 7.244774,-9.0619 11.096342,-13.05522 2.434121,-2.52369 7.203796,-7.50762 10.599282,-11.07539 4.423043,-4.647459 7.824145,-7.81546 11.994444,-11.172381 3.201458,-2.577041 7.567083,-6.127319 9.701389,-7.889504 6.144401,-5.073111 16.758623,-12.840219 20.990277,-15.359931 1.26118,-0.750965 3.245555,-1.945499 4.409722,-2.654522 1.164166,-0.709023 3.148541,-1.905085 4.409722,-2.657916 1.26118,-0.752828 2.980457,-1.891944 3.820611,-2.531371 1.486045,-1.130995 4.073306,-2.697307 8.305832,-5.028297 1.139754,-0.627697 2.807557,-1.574807 3.706234,-2.104683 0.89867,-0.529879 3.85552,-2.045691 6.57077,-3.368474 2.71526,-1.322779 7.15933,-3.506004 9.87572,-4.851608 2.71639,-1.345604 5.89139,-2.847516 7.05555,-3.337588 1.16417,-0.490068 4.00233,-1.752304 6.30702,-2.804968 11.36849,-5.192532 23.83146,-8.591881 42.72909,-11.654642 4.76515,-0.77229 7.19307,-0.974358 11.81806,-0.983576 l 5.82083,-0.01161 5.82083,2.877139 c 6.43234,3.179392 8.11396,3.814261 9.30882,3.514369 0.4426,-0.11108 2.0737,-1.673984 3.62469,-3.473122 3.02732,-3.511695 6.37868,-6.641261 12.81927,-11.970929 6.0519,-5.008022 8.68292,-6.673649 13.88713,-8.7915076 l 2.44892,-0.9965937 2.85626,1.0809499 c 2.76021,1.0445821 3.58427,0.7482945 8.20887,5.4431844 0,0 4.46654,4.82753 4.45485,5.283559 l 1.6743,3.77708 c 1.32483,3.326183 1.43301,5.510402 1.43301,8.189759 0,3.307842 -0.21772,3.008052 -3.2424,7.580419 -2.00928,3.037445 -12.49081,14.886278 -17.08909,19.599901 -1.92239,1.970623 -3.25307,3.452176 -3.25307,3.639417 0,0.18724 0.97255,1.900367 2.26326,4.011111 8.77764,14.354062 14.4249,27.833316 18.28637,43.348025 1.71881,6.9059 1.91098,6.63379 9.58003,7.16633 2.19893,0.15269 3.90815,0.36355 4.3729,0.54026 0.46478,0.17671 2.36614,0.87167 4.0007,1.07479 3.69912,0.45967 7.79635,2.02181 7.79889,2.97348 0.004,1.44854 3.38014,2.86643 5.81907,2.44377 1.64761,-0.28554 2.46944,-0.74088 2.46944,-1.36824 0,-0.64933 3.57443,-1.31039 5.33183,-0.67413 3.67026,1.3288 6.52394,6.28665 7.29938,11.52642 0.81012,5.47408 0.87994,9.6632 0.24137,14.48925 -0.87379,6.60427 -1.15747,7.65624 -2.94743,10.44618 -3.00623,4.68564 -4.26306,5.16891 -9.86711,6.35865 -3.38335,0.71829 -6.76167,1.38701 -23.85873,2.49653 -6.95109,0.4511 -7.29644,0.66829 -8.18862,1.54055 -0.65183,0.84474 -1.27547,2.54339 -3.26178,9.83847 -2.93155,10.76668 -3.39878,10.98653 -7.19072,19.54695 -3.13344,7.0738 -3.64975,8.88412 -8.36032,17.26486 -2.08051,3.70153 -2.79549,5.27279 -2.86527,6.16625 0.0738,1.25374 -0.27321,0.77529 11.39533,14.37048 7.87351,9.17355 11.03929,13.94849 11.41013,17.22627 0.17836,1.5766 0.0541,2.94252 -0.50751,5.14212 -0.89567,3.50807 -1.16776,4.08983 -4.16059,8.40051 -1.9535,2.81371 -3.29907,4.14522 -7.67457,7.88184 -2.89575,2.4729 -6.2247,4.62989 -7.08008,5.0676 -2.2878,1.1707 -5.27389,1.85102 -8.08595,1.84225 -2.69766,-0.008 -3.98942,-0.45976 -7.73892,-2.70397 -2.17167,-1.29982 -13.91342,-10.91087 -19.78971,-16.19857 -3.49733,-3.14703 -4.292,-3.66748 -5.59985,-3.66748 -0.48489,0 -3.39249,1.3786 -6.46137,3.06356 -3.06888,1.68497 -7.56416,4.14628 -9.9895,5.46959 -7.88455,4.30195 -18.09465,8.29221 -34.62183,12.58916 -2.64414,0.68746 -2.5105,0.30689 -3.86429,21.58742 -0.48588,7.63813 -2.09143,15.13662 -3.46776,16.94108 -1.72134,2.25679 -3.82638,3.59035 -6.55307,4.91144 -4.58899,2.22334 -7.87044,3.2518 -18.33143,2.60465 z M 94.391704,145.35751 c 0.304045,-0.30404 1.529574,-2.46867 2.723399,-4.81029 4.083987,-8.01048 8.004627,-12.28278 13.848447,-15.09059 4.78913,-2.30106 6.73398,-2.80654 12.19044,-3.1684 4.71225,-0.31251 5.6603,-0.61556 5.6603,-1.80935 0,-1.90906 -5.61952,-4.95991 -10.37601,-5.63316 -2.54506,-0.36024 -8.64489,0.1376 -10.72324,0.87517 -5.28203,1.87452 -9.607213,5.35206 -12.936194,10.40099 -2.138383,3.2432 -3.265053,6.28683 -3.67128,9.91774 -0.309291,2.76451 -0.03755,7.22231 0.497152,8.15559 0.986398,1.72168 1.86231,2.08697 2.786986,1.1623 z M -3.1123296,57.697124 c -2.4115405,-2.319055 -5.4303933,-6.049192 -7.0632674,-7.997347 -1.632874,-1.948155 -3.921335,-4.569817 -5.114342,-5.941403 -1.294055,-1.487766 -3.119812,-4.04759 -4.246281,-6.240595 -2.953897,-5.750634 -2.217847,-6.886656 3.486097,-13.302125 C -10.490794,17.962845 -3.0664588,11.776777 2.1121812,9.0825496 5.1382947,7.5081941 11.712527,6.6178167 13.797716,7.0148646 c 2.428959,0.4625128 4.169011,2.0229764 10.011718,7.0783684 5.237357,4.531615 6.242408,5.151213 7.861385,7.379341 1.719736,2.366798 0.522722,3.478477 0.130733,4.66622 -0.254536,0.771246 -0.800721,1.45112 -1.425215,1.774056 -0.904561,0.467769 -1.73688,2.141975 -1.750473,3.521079 -0.0088,0.892221 -2.486,3.851373 -9.195438,10.984452 C 9.33538,53.150833 7.3251288,55.38186 4.9374654,58.502994 3.1914906,60.785322 1.3438934,62.799115 0.77049193,62.770463 0.70922863,62.767288 -0.89793951,59.826589 -3.1123296,57.697124 Z M 133.92957,5.1307011 c -3.68653,-0.5494902 -9.08403,-1.2474045 -11.99445,-1.550924 -2.91041,-0.3035158 -6.32354,-0.811537 -7.58472,-1.1289312 -1.28417,-0.3231797 -3.92279,-0.6004877 -5.99722,-0.6302798 -3.98849,-0.057281 -5.51296,-0.5404379 -6.51094,-2.06354893 -0.55423,-0.84586937 -1.24457,-11.91234217 -1.24793,-20.00503317 -10e-4,-3.732775 0.0787,-4.226076 1.0044,-6.173611 1.19774,-2.519884 3.8021,-5.510149 5.82517,-6.688331 4.37197,-2.54612 17.42678,-5.4631 22.39509,-5.003984 3.53684,0.326838 7.76983,2.005094 8.97372,4.228219 0.20786,0.383855 0.80005,2.400839 1.25471,4.053442 0.84268,3.062784 1.32794,7.726079 2.40659,23.7164753 0.51555,7.6424402 0.73974,9.0132005 1.95453,10.0206739 0.5509,0.4568542 0.23135,1.0540231 -0.67572,1.6521084 -1.22992,0.8109903 -1.61462,0.7942651 -9.80323,-0.4262755 z"
         id="path864"
         inkscape:connector-curvature="0"
         sodipodi:nodetypes="scsccscsccsccccscccsccsscscccsccccscsscscsscscssccccssscscccccscssccsccsccccccsccscssccccssscccscscccsccccscssscsscscsccsssccscscsscssscsscccsscssssscccsscccccs" />
      <path
         style="fill:#252525;stroke-width:0.35277778"
         d="m 109.90122,325.90264 c -4.18151,-0.26041 -3.76005,-0.2384 -7.41979,-2.40538 -6.648519,-3.68117 -6.620878,-4.54761 -8.064945,-9.93664 -0.918752,-3.42865 -1.691035,-5.62494 -2.647844,-27.25799 -0.247124,-5.58738 -0.457291,-5.42652 -5.430227,-6.76506 -14.956694,-4.02582 -28.502438,-9.26172 -40.823773,-16.43203 -7.573908,-4.40759 -7.454573,-4.38123 -9.768026,-2.91176 -1.019115,0.84243 -11.75008,9.84669 -18.025221,15.22422 -1.164166,0.99764 -3.6224,3.2303 -5.36865,4.37706 -2.8716295,1.90024 -3.4908351,2.07132 -5.7017722,2.27393 -2.0631996,0.20343 -3.1517178,-0.0484 -6.96070167,-1.31295 -2.32833323,-0.77297 -4.88061903,-1.82133 -5.30425573,-2.04386 -1.3237845,-0.69536 -9.7346324,-8.42098 -10.2738644,-9.44083 -0.80421,-1.521 0.602009,-2.49229 3.275556,-2.76334 2.8518171,-0.28912 6.3449273,-1.6839 9.6961749,-3.87162 3.33249757,-2.17548 4.3905628,-3.16161 12.9303351,-12.05124 8.009639,-8.33779 7.614013,-7.49022 5.595394,-11.98719 -0.869396,-1.93678 -6.0449138,-10.97902 -9.1341782,-15.95848 -0.6018776,-0.97013 -1.1975993,-2.34563 -1.3238338,-3.05665 -0.1975203,-1.11257 -0.1105217,-1.37073 0.6241803,-1.85213 0.4695295,-0.30764 2.508712,-0.80232 4.5315187,-1.09927 2.884032,-0.42339 4.401174,-0.87541 7.02922,-2.09429 16.081153,-7.4584 22.170256,-10.37671 25.047222,-12.00435 1.843264,-1.04282 4.859513,-2.55489 6.702777,-3.36016 3.709084,-1.62039 6.027353,-2.95189 10.759722,-6.1799 1.74625,-1.19113 7.3025,-4.59728 12.347222,-7.56921 10.112547,-5.95746 17.51089,-10.80434 20.247302,-13.26461 1.613048,-1.45027 1.88849,-1.92973 2.871431,-4.99826 l 1.087233,-3.39412 -0.581819,-2.61517 c -1.077827,-4.84462 -0.123528,-6.23323 5.112103,-7.43871 3.75938,-0.86557 5.66228,-1.78014 9.01387,-4.33224 1.35979,-1.03543 4.64071,-3.11501 7.29094,-4.6213 6.34187,-3.60447 7.78686,-4.73523 11.15164,-8.72657 1.5539,-1.84326 4.15124,-4.74175 5.77183,-6.44109 2.85496,-2.99362 2.99593,-3.08957 4.53408,-3.08548 1.86549,0.005 3.16586,0.71657 5.40978,2.96046 2.37359,2.3736 2.79922,2.38073 6.65183,0.11131 3.78506,-2.22964 8.07773,-5.25095 10.86894,-7.64988 1.06716,-0.91718 3.36903,-2.66925 5.11528,-3.8935 3.88221,-2.72171 5.92377,-4.39989 10.93611,-8.98956 2.13431,-1.95433 5.70618,-5.04618 7.9375,-6.87077 13.06661,-10.684842 22.72993,-20.388754 35.03856,-35.185781 3.31477,-3.98489 4.11674,-5.269562 4.11847,-6.597167 0,-0.606428 -1.18276,-3.286407 -2.8822,-6.526389 -2.49752,-4.761558 -2.88544,-5.739539 -2.89782,-7.306123 -0.0109,-1.393525 0.20602,-2.141622 0.94555,-3.259137 0.93261,-1.409238 10.74441,-12.001867 15.40284,-16.628551 4.20921,-4.180561 11.99173,-9.524453 13.8708,-9.524453 0.96661,0 3.15467,0.369414 4.05224,1.43732 0.81224,0.966383 1.71579,3.128639 2.42067,4.898945 1.10589,2.777465 1.31024,3.754522 1.37511,6.237463 0.0992,3.797794 0.24466,4.290672 -3.11113,9.272505 -1.97856,2.955487 -12.88886,15.196562 -17.17356,19.580122 -2.85594,2.921825 -3.25787,3.187902 -3.25787,3.872009 0,0.181229 1.13913,2.052028 2.61713,4.357406 7.11341,11.095383 13.63787,26.792545 17.08496,40.109741 2.31789,8.95478 2.4752,7.98486 3.62263,8.93212 1.02743,0.52416 1.94463,1.30705 4.43278,1.5062 5.6649,0.45341 6.02696,0.65746 6.89641,3.88627 1.02539,3.80806 5.34603,10.8635 8.69128,14.19255 2.29009,2.27898 5.61672,4.13124 7.4197,4.13124 0.65295,0 2.08869,-0.31685 3.19048,-0.7041 3.40452,-1.1966 6.13643,-4.49319 7.46351,-9.0062 0.82003,-2.78864 1.93888,-4.8226 2.55303,-4.44305 0.8358,0.51657 2.67793,5.10978 3.06966,7.55289 0.86815,5.41443 0.95187,10.50085 0.1409,16.25543 -0.81961,5.81621 -1.05348,6.5387 -3.67878,10.43643 -3.3908,5.03416 -5.56441,5.79762 -32.8076,7.54298 -6.50424,0.41671 -7.32276,0.23405 -8.29086,1.71154 -0.28352,0.4327 -1.82709,4.76467 -3.1674,9.68724 -2.92724,10.75074 -3.15779,11.10898 -6.96264,19.69867 -3.0964,6.99032 -3.3237,7.49428 -8.48036,16.73827 -2.25993,4.05124 -2.91193,5.47678 -2.91193,6.42205 0,1.38877 1.87155,3.3435 12.98215,16.13598 3.22841,3.71714 5.94996,7.26408 7.37976,9.62954 2.83172,4.68477 2.96744,6.46409 1.83245,11.05762 -0.66848,2.70531 -1.25045,4.09658 -3.15633,6.93711 -2.84797,4.24452 -3.32738,4.66786 -9.4334,9.91717 -6.42789,5.52596 -8.85807,6.60514 -14.29706,6.63731 0,0 -2.41948,-0.0302 -3.16362,-0.29481 -0.83605,-0.25141 -3.91818,-1.89736 -3.91818,-1.89736 -2.99727,-1.69812 -12.94139,-9.72444 -19.87428,-16.00593 -3.78234,-3.42698 -4.84447,-4.38887 -6.05387,-4.35093 -0.55786,0.0175 -2.97578,1.00686 -6.30808,2.83369 -3.05407,1.67429 -8.15199,3.64943 -10.77136,5.07519 -7.20072,3.91944 -16.32413,8.07035 -29.70548,11.62348 -2.61938,0.69552 -5.01906,1.26592 -5.50412,1.51052 -1.47442,0.99052 -1.2735,0.77153 -2.675,18.40205 -0.63482,9.8946 -1.41961,16.57506 -3.27601,19.39463 -2.24585,3.93579 -6.61238,6.20668 -12.01529,7.34691 -3.2312,0.70398 -7.37333,1.01056 -16.53713,0.498 z M -21.836603,168.50645 c -1.268911,-0.82996 -1.796583,-0.90678 -18.098031,-2.01087 -8.751922,-0.59277 -11.431304,-0.95529 -14.156741,-1.66342 -3.990901,-1.03692 -4.53552,-0.99959 -6.564606,-2.93343 -2.654374,-2.52978 -2.170167,-5.06728 0.156021,-8.7037 1.527366,-2.38765 2.916411,-3.32994 7.280924,-4.93918 4.150378,-1.53029 4.207538,-1.53911 13.112732,-2.02289 6.469955,-0.35148 7.603268,-0.32951 10.054166,0.19489 1.519248,0.32506 3.597709,0.76431 4.618803,0.9761 1.021094,0.21179 2.023318,0.58604 2.227164,0.83166 0.203846,0.24562 0.597662,1.92635 0.875146,3.73495 0.277488,1.8086 0.741356,4.16149 1.03082,5.22865 0.600823,2.21502 1.367219,8.87271 1.186618,10.30817 0,0 -0.670083,2.5559 -0.74498,2.66592 -0.03247,0.12145 -0.50308,-1.29706 -0.978036,-1.66685 z M -4.7876574,56.010266 C -5.5832319,55.127953 -17.866592,41.468617 -17.866592,40.140472 c 0,-1.862691 3.126004,-1.089172 7.701373,2.405957 1.3969789,1.067152 3.8143956,2.734027 5.3720294,3.704166 3.6583372,2.278511 4.19036841,3.203462 4.05836602,7.055556 -0.0868715,2.534955 -1.11847902,4.67033 -1.76541342,4.762934 -0.3961342,0.0567 -1.5991736,-1.366314 -2.2874204,-2.058819 z M 134.65308,3.0188252 c -6.54366,-1.3532556 -6.90303,-1.6811801 -8.34172,-7.6118332 -1.12334,-4.6307199 -1.89599,-12.463875 -1.64856,-16.713341 0.18206,-3.126892 0.78199,-4.447048 3.60711,-7.9375 3.03446,-3.749075 6.48496,-6.660222 8.56505,-6.228103 1.68861,0.350791 2.2948,1.755641 3.2663,5.495265 0.89852,3.458692 1.31442,8.157496 2.39608,24.1800246 0.28991,4.2944203 0.74901,8.0668433 0.93446,8.5546609 0.18549,0.4878176 -0.64716,1.0060239 -0.7641,1.1229909 -0.42997,0.429955 -3.21554,0.1302985 -8.01462,-0.8621642 z"
         id="path862"
         inkscape:connector-curvature="0"
         sodipodi:nodetypes="ccsssscsccscscsscccccscscssccsccscccccssscccccccsccsccscscsccssccscccccscscccccccccsccscccccccscscsscsscccccsssccccccccscscc" />
    </g>
  </g>
</svg>
