<?xml version="1.0" encoding="UTF-8" standalone="no"?>
<!-- Created with Inkscape (http://www.inkscape.org/) -->

<svg
   xmlns:dc="http://purl.org/dc/elements/1.1/"
   xmlns:cc="http://creativecommons.org/ns#"
   xmlns:rdf="http://www.w3.org/1999/02/22-rdf-syntax-ns#"
   xmlns:svg="http://www.w3.org/2000/svg"
   xmlns="http://www.w3.org/2000/svg"
   xmlns:sodipodi="http://sodipodi.sourceforge.net/DTD/sodipodi-0.dtd"
   xmlns:inkscape="http://www.inkscape.org/namespaces/inkscape"
   width="20.285976mm"
   height="29.055281mm"
   viewBox="0 0 20.285976 29.055281"
   version="1.1"
   id="svg8"
   sodipodi:docname="questionmark.svg"
   inkscape:version="0.92.4 (5da689c313, 2019-01-14)">
  <defs
     id="defs2">
    <inkscape:path-effect
       is_visible="true"
       id="path-effect1207"
       effect="spiro" />
    <inkscape:path-effect
       is_visible="true"
       id="path-effect1199"
       effect="spiro" />
    <inkscape:path-effect
       is_visible="true"
       id="path-effect1195"
       effect="spiro" />
    <inkscape:path-effect
       effect="bspline"
       id="path-effect1043"
       is_visible="true"
       weight="33.333333"
       steps="2"
       helper_size="0"
       apply_no_weight="true"
       apply_with_weight="true"
       only_selected="false" />
    <inkscape:path-effect
       effect="bspline"
       id="path-effect1039"
       is_visible="true"
       weight="33.333333"
       steps="2"
       helper_size="0"
       apply_no_weight="true"
       apply_with_weight="true"
       only_selected="false" />
    <inkscape:path-effect
       effect="bspline"
       id="path-effect1017"
       is_visible="true"
       weight="33.333333"
       steps="2"
       helper_size="0"
       apply_no_weight="true"
       apply_with_weight="true"
       only_selected="false" />
    <inkscape:path-effect
       effect="bspline"
       id="path-effect1013"
       is_visible="true"
       weight="33.333333"
       steps="2"
       helper_size="0"
       apply_no_weight="true"
       apply_with_weight="true"
       only_selected="false" />
    <inkscape:path-effect
       effect="bspline"
       id="path-effect1009"
       is_visible="true"
       weight="33.333333"
       steps="2"
       helper_size="0"
       apply_no_weight="true"
       apply_with_weight="true"
       only_selected="false" />
    <inkscape:path-effect
       effect="bspline"
       id="path-effect1005"
       is_visible="true"
       weight="33.333333"
       steps="2"
       helper_size="0"
       apply_no_weight="true"
       apply_with_weight="true"
       only_selected="false" />
    <inkscape:path-effect
       effect="bspline"
       id="path-effect1001"
       is_visible="true"
       weight="33.333333"
       steps="2"
       helper_size="0"
       apply_no_weight="true"
       apply_with_weight="true"
       only_selected="false" />
    <inkscape:path-effect
       is_visible="true"
       id="path-effect997"
       effect="spiro" />
    <inkscape:path-effect
       effect="spiro"
       id="path-effect993"
       is_visible="true" />
    <inkscape:path-effect
       effect="spiro"
       id="path-effect989"
       is_visible="true" />
    <inkscape:path-effect
       is_visible="true"
       id="path-effect985"
       effect="spiro" />
    <inkscape:path-effect
       is_visible="true"
       id="path-effect981"
       effect="spiro" />
    <inkscape:path-effect
       effect="spiro"
       id="path-effect941"
       is_visible="true" />
    <inkscape:path-effect
       effect="bspline"
       id="path-effect937"
       is_visible="true"
       weight="33.333333"
       steps="2"
       helper_size="0"
       apply_no_weight="true"
       apply_with_weight="true"
       only_selected="false" />
    <inkscape:path-effect
       effect="spiro"
       id="path-effect933"
       is_visible="true" />
    <inkscape:path-effect
       effect="spiro"
       id="path-effect929"
       is_visible="true" />
    <inkscape:path-effect
       effect="spiro"
       id="path-effect925"
       is_visible="true" />
    <inkscape:path-effect
       effect="bspline"
       id="path-effect921"
       is_visible="true"
       weight="33.333333"
       steps="2"
       helper_size="0"
       apply_no_weight="true"
       apply_with_weight="true"
       only_selected="false" />
    <inkscape:path-effect
       effect="spiro"
       id="path-effect917"
       is_visible="true" />
    <inkscape:path-effect
       effect="spiro"
       id="path-effect913"
       is_visible="true" />
    <inkscape:path-effect
       only_selected="false"
       apply_with_weight="true"
       apply_no_weight="true"
       helper_size="0"
       steps="2"
       weight="33.333333"
       is_visible="true"
       id="path-effect909"
       effect="bspline" />
    <inkscape:path-effect
       effect="bspline"
       id="path-effect905"
       is_visible="true"
       weight="33.333333"
       steps="2"
       helper_size="0"
       apply_no_weight="true"
       apply_with_weight="true"
       only_selected="false" />
    <inkscape:path-effect
       effect="spiro"
       id="path-effect901"
       is_visible="true" />
    <inkscape:path-effect
       effect="spiro"
       id="path-effect897"
       is_visible="true" />
    <inkscape:path-effect
       effect="spiro"
       id="path-effect893"
       is_visible="true" />
    <inkscape:path-effect
       effect="spiro"
       id="path-effect889"
       is_visible="true" />
    <inkscape:path-effect
       effect="spiro"
       id="path-effect941-9"
       is_visible="true" />
    <inkscape:path-effect
       effect="spiro"
       id="path-effect913-5"
       is_visible="true" />
    <inkscape:path-effect
       effect="spiro"
       id="path-effect913-5-1"
       is_visible="true" />
    <inkscape:path-effect
       effect="spiro"
       id="path-effect913-5-2"
       is_visible="true" />
    <inkscape:path-effect
       effect="bspline"
       id="path-effect1043-9"
       is_visible="true"
       weight="33.333333"
       steps="2"
       helper_size="0"
       apply_no_weight="true"
       apply_with_weight="true"
       only_selected="false" />
    <inkscape:path-effect
       effect="spiro"
       id="path-effect933-1"
       is_visible="true" />
  </defs>
  <sodipodi:namedview
     id="base"
     pagecolor="#ffffff"
     bordercolor="#666666"
     borderopacity="1.0"
     inkscape:pageopacity="0.0"
     inkscape:pageshadow="2"
     inkscape:zoom="5.6568542"
     inkscape:cx="30.749369"
     inkscape:cy="51.293428"
     inkscape:document-units="mm"
     inkscape:current-layer="layer1"
     showgrid="false"
     inkscape:window-width="1920"
     inkscape:window-height="1017"
     inkscape:window-x="-8"
     inkscape:window-y="-8"
     inkscape:window-maximized="1" />
  <metadata
     id="metadata5">
    <rdf:RDF>
      <cc:Work
         rdf:about="">
        <dc:format>image/svg+xml</dc:format>
        <dc:type
           rdf:resource="http://purl.org/dc/dcmitype/StillImage" />
      </cc:Work>
    </rdf:RDF>
  </metadata>
  <g
     inkscape:label="Layer 1"
     inkscape:groupmode="layer"
     id="layer1"
     transform="translate(-140.20546,-109.55723)">
    <path
       transform="matrix(0,-1,-1,0,270.12504,284.84192)"
       style="fill:#354ffe;fill-opacity:1;stroke:none;stroke-width:0.26458332px;stroke-linecap:butt;stroke-linejoin:miter;stroke-opacity:0"
       d="m 146.22941,121.44611 c 8.1e-4,0.45377 0.1261,0.9067 0.35861,1.29637 0.22803,0.38216 0.5585,0.70253 0.94755,0.9186 0.38904,0.21606 0.83568,0.32727 1.28062,0.31886 h 0.54343 c 0.44494,0.008 0.89158,-0.1028 1.28062,-0.31886 0.38905,-0.21607 0.71952,-0.53644 0.94755,-0.9186 0.23251,-0.38967 0.3578,-0.8426 0.35861,-1.29637 l 3e-5,-3.56549 c -8.1e-4,-0.45377 -0.1261,-0.9067 -0.35861,-1.29637 -0.22803,-0.38216 -0.5585,-0.70253 -0.94755,-0.9186 -0.38904,-0.21606 -0.83568,-0.32727 -1.28062,-0.31886 h -0.54338 c -0.44494,-0.008 -0.89158,0.1028 -1.28062,0.31886 -0.38905,0.21607 -0.71952,0.53644 -0.94755,0.9186 -0.23251,0.38967 -0.3578,0.8426 -0.35861,1.29637 z"
       id="path991"
       inkscape:connector-curvature="0"
       inkscape:path-effect="#path-effect993"
       inkscape:original-d="m 146.22941,121.44611 c 0.2433,0.58003 -0.24013,1.1356 0.35861,1.29637 0.59875,0.16077 1.62889,1.07722 2.22817,1.23746 h 0.54343 c 0.59928,-0.16024 1.62942,-1.07669 2.22817,-1.23746 0.59874,-0.16077 0.11531,-0.71634 0.35861,-1.29637 l 3e-5,-3.56549 c -0.2433,-0.58003 0.24013,-1.1356 -0.35861,-1.29637 -0.59875,-0.16077 -1.62889,-1.07722 -2.22817,-1.23746 h -0.54338 c -0.59928,0.16024 -1.62942,1.07669 -2.22817,1.23746 -0.59874,0.16077 -0.11531,0.71634 -0.35861,1.29637 z"
       sodipodi:nodetypes="ccccccccccccc" />
    <path
       id="path931-3"
       transform="translate(-8.5399,0.24214)"
       style="fill:#354ffe;fill-opacity:1;stroke:none;stroke-width:0.26458332px;stroke-linecap:butt;stroke-linejoin:miter;stroke-opacity:0.06280194"
       inkscape:path-effect="#path-effect933-1"
       inkscape:original-d="m 157.89955,115.10465 c 0.59928,0.16024 1.62942,1.07669 2.22817,1.23746 0.59874,0.16077 0.11531,0.71634 0.35861,1.29637 -0.19063,0.71215 -0.10985,1.07022 -0.30106,1.7829 -0.19115,0.71268 -0.83317,1.60174 -1.60323,2.12194 l -2.91323,2.73299 c -0.29798,0.29798 0.53104,-0.36347 -0.88388,1.35098 -0.31621,0.38315 0.13763,0.52298 -0.11113,0.95365 l 0.0112,0.44305 c 0.16024,0.59928 1.07669,1.62942 1.23746,2.22817 0.16077,0.59874 0.71634,0.11531 1.29637,0.35861 h 3.56549 c 0.58003,-0.2433 1.1356,0.24013 1.29637,-0.35861 0.16077,-0.59875 1.07722,-1.62889 1.23746,-2.22817 v -0.51783 c 0.24876,-0.43067 -0.20508,-0.5705 0.11113,-0.95365 1.41492,-1.71445 0.5859,-1.053 0.88388,-1.35098 l 2.64596,-2.68288 c 0.77006,-0.5202 1.5749,-1.62673 1.76605,-2.33941 0.19121,-0.71268 0.11043,-1.07075 0.30106,-1.7829 -1.03577,-1.79473 -1.23102,-3.99716 -2.26453,-5.78654 -1.03352,-1.78938 -3.91852,-1.39087 -5.46056,-2.29471 h -7.69322 c -0.84189,0.48608 -1.43307,-0.5242 -2.01856,0.49008 -0.58548,1.01428 -2.25791,3.53063 -2.84392,4.54544 v 1.48643 c 0.21368,0.36938 0.6526,1.29027 0.86575,1.66017 0.21314,0.36991 1.00858,0.32701 1.34961,0.52432 h 0.9679 c 0.43067,-0.24876 0.83746,-0.0245 1.2676,-0.27303 0.43014,-0.24823 1.31727,-1.17552 1.61525,-1.4735 l 0.21499,-0.28269 c 0.10897,-0.14329 1.42706,-0.88766 1.42706,-0.88766 z"
       d="m 157.89955,115.10465 c 0.44494,-0.008 0.89158,0.1028 1.28062,0.31886 0.38905,0.21607 0.71952,0.53644 0.94755,0.9186 0.23251,0.38967 0.3578,0.8426 0.35861,1.29637 0.0158,0.60628 -0.0871,1.21542 -0.30106,1.7829 -0.3171,0.84095 -0.8809,1.58717 -1.60323,2.12194 l -2.91323,2.73299 c -0.19926,0.18693 -0.39456,0.38102 -0.54726,0.60759 -0.1527,0.22656 -0.26332,0.48019 -0.33662,0.74339 -0.0862,0.30955 -0.12385,0.63257 -0.11113,0.95365 l 0.0112,0.44305 c -0.008,0.44494 0.1028,0.89158 0.31886,1.28062 0.21607,0.38905 0.53644,0.71952 0.9186,0.94755 0.38967,0.23251 0.8426,0.3578 1.29637,0.35861 h 3.56549 c 0.45377,-8.1e-4 0.9067,-0.1261 1.29637,-0.35861 0.38216,-0.22803 0.70253,-0.5585 0.9186,-0.94755 0.21606,-0.38904 0.32727,-0.83568 0.31886,-1.28062 v -0.51783 c -0.0195,-0.32111 0.0183,-0.64563 0.11113,-0.95365 0.0785,-0.26064 0.19752,-0.50895 0.35093,-0.73383 0.1534,-0.22488 0.3418,-0.42333 0.53295,-0.61715 l 2.64596,-2.68288 c 0.80322,-0.58151 1.42685,-1.40761 1.76605,-2.33941 0.20731,-0.56949 0.30988,-1.17692 0.30106,-1.7829 0.079,-2.12904 -0.76146,-4.27662 -2.26453,-5.78654 -1.42883,-1.43535 -3.43534,-2.27855 -5.46056,-2.29471 h -7.69322 c -0.69716,0.0205 -1.38963,0.18858 -2.01856,0.49008 -0.8503,0.40762 -1.58113,1.06082 -2.08128,1.86021 -0.50014,0.79939 -0.76794,1.74229 -0.76264,2.68523 v 1.48643 c 0.0467,0.64006 0.36766,1.2555 0.86575,1.66017 0.38072,0.30931 0.85993,0.49548 1.34961,0.52432 h 0.9679 c 0.43491,-0.008 0.86816,-0.10085 1.2676,-0.27303 0.68176,-0.29388 1.26017,-0.82152 1.61525,-1.4735 l 0.21499,-0.28269 c 0.17661,-0.23222 0.36387,-0.46241 0.60515,-0.62642 0.24128,-0.16402 0.53017,-0.2592 0.82191,-0.26124 z"
       inkscape:connector-curvature="0"
       sodipodi:nodetypes="ccccccsccccccccscccccccccccccccccc" />
    <path
       sodipodi:nodetypes="ccccccccccccc"
       inkscape:original-d="m 146.22941,118.33017 c 0.2433,0.58003 -0.24013,1.1356 0.35861,1.29637 0.59875,0.16077 1.62889,1.07722 2.22817,1.23746 h 0.54343 c 0.59928,-0.16024 1.62942,-1.07669 2.22817,-1.23746 0.59874,-0.16077 0.11531,-0.71634 0.35861,-1.29637 l 3e-5,-0.44955 c -0.2433,-0.58003 0.24013,-1.1356 -0.35861,-1.29637 -0.59875,-0.16077 -1.62889,-1.07722 -2.22817,-1.23746 h -0.54338 c -0.59928,0.16024 -1.62942,1.07669 -2.22817,1.23746 -0.59874,0.16077 -0.11531,0.71634 -0.35861,1.29637 z"
       inkscape:path-effect="#path-effect1195"
       inkscape:connector-curvature="0"
       id="path1193"
       d="m 146.22941,118.33017 c 8.1e-4,0.45377 0.1261,0.9067 0.35861,1.29637 0.22803,0.38216 0.5585,0.70253 0.94755,0.9186 0.38904,0.21606 0.83568,0.32727 1.28062,0.31886 h 0.54343 c 0.44494,0.008 0.89158,-0.1028 1.28062,-0.31886 0.38905,-0.21607 0.71952,-0.53644 0.94755,-0.9186 0.23251,-0.38967 0.3578,-0.8426 0.35861,-1.29637 l 3e-5,-0.44955 c -8.1e-4,-0.45377 -0.1261,-0.9067 -0.35861,-1.29637 -0.22803,-0.38216 -0.5585,-0.70253 -0.94755,-0.9186 -0.38904,-0.21606 -0.83568,-0.32727 -1.28062,-0.31886 h -0.54338 c -0.44494,-0.008 -0.89158,0.1028 -1.28062,0.31886 -0.38905,0.21607 -0.71952,0.53644 -0.94755,0.9186 -0.23251,0.38967 -0.3578,0.8426 -0.35861,1.29637 z"
       style="fill:#354ffe;fill-opacity:1;stroke:none;stroke-width:0.26458332px;stroke-linecap:butt;stroke-linejoin:miter;stroke-opacity:0"
       transform="matrix(0,-1,-1,0,270.12504,284.84192)" />
    <path
       sodipodi:nodetypes="ccccsccccccccscccccccc"
       inkscape:connector-curvature="0"
       d="m 163.60704,117.63848 c 0.0158,0.60628 -0.0871,1.21542 -0.30106,1.7829 -0.3171,0.84095 -0.8809,1.58717 -1.60323,2.12194 l -2.91323,2.73299 c -0.19926,0.18693 -0.39456,0.38102 -0.54726,0.60759 -0.1527,0.22656 -0.26332,0.48019 -0.33662,0.74339 -0.0862,0.30955 -0.12385,0.63257 -0.11113,0.95365 l 0.0112,0.44305 c -0.008,0.44494 0.1028,0.89158 0.31886,1.28062 0.21607,0.38905 0.53644,0.71952 0.9186,0.94755 0.38967,0.23251 0.8426,0.3578 1.29637,0.35861 h 0.44478 c 0.45377,-8.1e-4 0.9067,-0.1261 1.29637,-0.35861 0.38216,-0.22803 0.70253,-0.5585 0.9186,-0.94755 0.21606,-0.38904 0.32727,-0.83568 0.31886,-1.28062 v -0.51783 c -0.0195,-0.32111 0.0183,-0.64563 0.11113,-0.95365 0.0785,-0.26064 0.19752,-0.50895 0.35093,-0.73383 0.1534,-0.22488 0.3418,-0.42333 0.53295,-0.61715 l 2.64596,-2.68288 c 0.80322,-0.58151 1.42685,-1.40761 1.76605,-2.33941 0.20731,-0.56949 0.30988,-1.17692 0.30106,-1.7829 0.0227,-0.50333 -0.10962,-1.0126 -0.37452,-1.44119 -0.2649,-0.42859 -0.66124,-0.77469 -1.12161,-0.97943 -0.53366,-0.23734 -1.14804,-0.28186 -1.71441,-0.13919 -0.56637,0.14267 -1.08246,0.46929 -1.466,0.90977 -0.45376,0.52113 -0.72081,1.20156 -0.74265,1.89221 z"
       inkscape:original-d="m 163.60704,117.63848 c -0.19063,0.71215 -0.10985,1.07022 -0.30106,1.7829 -0.19115,0.71268 -0.83317,1.60174 -1.60323,2.12194 l -2.91323,2.73299 c -0.29798,0.29798 0.53104,-0.36347 -0.88388,1.35098 -0.31621,0.38315 0.13763,0.52298 -0.11113,0.95365 l 0.0112,0.44305 c 0.16024,0.59928 1.07669,1.62942 1.23746,2.22817 0.16077,0.59874 0.71634,0.11531 1.29637,0.35861 h 0.44478 c 0.58003,-0.2433 1.1356,0.24013 1.29637,-0.35861 0.16077,-0.59875 1.07722,-1.62889 1.23746,-2.22817 v -0.51783 c 0.24876,-0.43067 -0.20508,-0.5705 0.11113,-0.95365 1.41492,-1.71445 0.5859,-1.053 0.88388,-1.35098 l 2.64596,-2.68288 c 0.77006,-0.5202 1.5749,-1.62673 1.76605,-2.33941 0.19121,-0.71268 0.11043,-1.07075 0.30106,-1.7829 -1.03577,-1.79473 -1.11409,-1.93418 -1.49613,-2.42062 -0.46557,-0.62007 -2.42458,0.37045 -3.18041,0.77058 -0.84073,0.50226 -0.49274,0.77052 -0.74265,1.89221 z"
       inkscape:path-effect="#path-effect1199"
       style="fill:#354ffe;fill-opacity:1;stroke:none;stroke-width:0.26458332px;stroke-linecap:butt;stroke-linejoin:miter;stroke-opacity:0.06280194"
       transform="translate(-8.5399,0.24214)"
       id="path1197" />
    <path
       sodipodi:nodetypes="aszaaacccaaaaaa"
       inkscape:connector-curvature="0"
       d="m 156.15516,113.09252 c -0.29055,-0.003 -0.58113,-0.004 -0.87169,-10e-4 -0.42181,0.004 -0.8436,0.014 -1.26541,0.01 -0.37857,-0.004 -0.75892,-0.0185 -1.13431,0.0306 -0.37539,0.0491 -0.75062,0.16695 -1.04743,0.40198 -0.35207,0.27879 -0.56684,0.70254 -0.67085,1.13941 -0.10401,0.43688 -0.10683,0.89084 -0.10073,1.33988 0.005,0.33785 0.0146,0.68025 0.1105,1.00424 0.0479,0.162 0.11748,0.3184 0.21418,0.45693 0.0967,0.13852 0.22114,0.25891 0.36804,0.34235 0.21683,0.12317 0.47515,0.16131 0.72346,0.13834 0.24831,-0.023 0.48809,-0.10411 0.71536,-0.20674 0.65824,-0.29724 1.23004,-0.78305 1.62972,-1.38462 l 0.20569,-0.36434 c 0.27895,-0.42477 0.72977,-0.73302 1.2268,-0.83886 0.50076,-0.10663 1.02524,-0.0138 1.5304,-0.0971 0.25258,-0.0417 0.50288,-0.13036 0.69952,-0.29427 0.0983,-0.0819 0.1821,-0.18216 0.24025,-0.29618 0.0582,-0.11403 0.0902,-0.242 0.087,-0.36996 -0.004,-0.14287 -0.0512,-0.28321 -0.12819,-0.40361 -0.077,-0.12039 -0.18271,-0.22122 -0.30205,-0.29986 -0.23867,-0.15727 -0.52563,-0.22448 -0.80945,-0.25833 -0.15364,-0.0183 -0.30823,-0.0277 -0.46286,-0.033 -0.14776,-0.005 -0.29562,-0.006 -0.44346,-0.008 -0.1715,-0.002 -0.343,-0.004 -0.51449,-0.007 z"
       inkscape:original-d="m 156.15516,113.09252 c -0.29056,-0.002 1.54198,3.05757 -0.87169,-10e-4 -0.23473,-0.29747 -1.12692,-0.0628 -1.26541,0.01 -0.13849,0.0731 -1.63045,-0.0632 -2.18174,0.43257 -0.64357,0.57874 -0.79971,1.61422 -0.77158,2.47929 0.0209,0.64365 0.15344,1.45152 0.69272,1.80352 0.40208,0.26244 1.00868,0.18013 1.43882,-0.0684 0.43014,-0.24823 1.33174,-1.08664 1.62972,-1.38462 l 0.20569,-0.36434 c 0.10897,-0.14329 0.79109,-0.60312 1.2268,-0.83886 0.81127,-0.43894 2.43408,-0.14337 2.55717,-1.05753 0.0698,-0.51833 -0.75122,-0.77487 -1.23969,-0.9618 -0.14446,-0.0553 -0.30834,-0.0261 -0.46286,-0.033 -0.1477,-0.007 -0.29563,-0.006 -0.44346,-0.008 -0.17149,-0.003 -0.34298,-0.006 -0.51449,-0.007 z"
       inkscape:path-effect="#path-effect1207"
       style="fill:#354ffe;fill-opacity:1;stroke:none;stroke-width:0.26458332px;stroke-linecap:butt;stroke-linejoin:miter;stroke-opacity:0.06280194"
       transform="translate(-8.5399,0.24214)"
       id="path1205" />
  </g>
</svg>
