<?xml version="1.0" encoding="UTF-8" standalone="no"?>
<!-- Created with Inkscape (http://www.inkscape.org/) -->

<svg
   xmlns:dc="http://purl.org/dc/elements/1.1/"
   xmlns:cc="http://creativecommons.org/ns#"
   xmlns:rdf="http://www.w3.org/1999/02/22-rdf-syntax-ns#"
   xmlns:svg="http://www.w3.org/2000/svg"
   xmlns="http://www.w3.org/2000/svg"
   xmlns:sodipodi="http://sodipodi.sourceforge.net/DTD/sodipodi-0.dtd"
   xmlns:inkscape="http://www.inkscape.org/namespaces/inkscape"
   width="5.9295907mm"
   height="5.9295907mm"
   viewBox="0 0 5.9295907 5.9295907"
   version="1.1"
   id="svg8"
   inkscape:version="0.92.4 (5da689c313, 2019-01-14)"
   sodipodi:docname="smileyWon.svg">
  <defs
     id="defs2">
    <inkscape:path-effect
       effect="spiro"
       id="path-effect1766"
       is_visible="true" />
    <inkscape:path-effect
       effect="spiro"
       id="path-effect1762"
       is_visible="true" />
    <marker
       inkscape:stockid="DotL"
       orient="auto"
       refY="0"
       refX="0"
       id="DotL"
       style="overflow:visible"
       inkscape:isstock="true">
      <path
         id="path967"
         d="m -2.5,-1 c 0,2.76 -2.24,5 -5,5 -2.76,0 -5,-2.24 -5,-5 0,-2.76 2.24,-5 5,-5 2.76,0 5,2.24 5,5 z"
         style="fill:#000000;fill-opacity:1;fill-rule:evenodd;stroke:#000000;stroke-width:1.00000003pt;stroke-opacity:1"
         transform="matrix(0.8,0,0,0.8,5.92,0.8)"
         inkscape:connector-curvature="0" />
    </marker>
    <inkscape:path-effect
       only_selected="false"
       apply_with_weight="true"
       apply_no_weight="true"
       helper_size="0"
       steps="2"
       weight="33.333333"
       is_visible="true"
       id="path-effect986"
       effect="bspline" />
    <inkscape:path-effect
       only_selected="false"
       apply_with_weight="true"
       apply_no_weight="true"
       helper_size="0"
       steps="2"
       weight="33.333333"
       is_visible="true"
       id="path-effect982"
       effect="bspline" />
    <inkscape:path-effect
       effect="bspline"
       id="path-effect978"
       is_visible="true"
       weight="33.333333"
       steps="2"
       helper_size="0"
       apply_no_weight="true"
       apply_with_weight="true"
       only_selected="false" />
    <inkscape:path-effect
       only_selected="false"
       apply_with_weight="true"
       apply_no_weight="true"
       helper_size="0"
       steps="2"
       weight="33.333333"
       is_visible="true"
       id="path-effect964"
       effect="bspline" />
    <inkscape:path-effect
       only_selected="false"
       apply_with_weight="true"
       apply_no_weight="true"
       helper_size="0"
       steps="2"
       weight="33.333333"
       is_visible="true"
       id="path-effect897"
       effect="bspline" />
    <inkscape:path-effect
       only_selected="false"
       apply_with_weight="true"
       apply_no_weight="true"
       helper_size="0"
       steps="2"
       weight="33.333333"
       is_visible="true"
       id="path-effect893"
       effect="bspline" />
    <inkscape:path-effect
       is_visible="true"
       id="path-effect1766-8"
       effect="spiro" />
    <inkscape:path-effect
       is_visible="true"
       id="path-effect1762-6"
       effect="spiro" />
    <marker
       inkscape:isstock="true"
       style="overflow:visible"
       id="DotL-6"
       refX="0"
       refY="0"
       orient="auto"
       inkscape:stockid="DotL">
      <path
         inkscape:connector-curvature="0"
         transform="matrix(0.8,0,0,0.8,5.92,0.8)"
         style="fill:#000000;fill-opacity:1;fill-rule:evenodd;stroke:#000000;stroke-width:1.00000003pt;stroke-opacity:1"
         d="m -2.5,-1 c 0,2.76 -2.24,5 -5,5 -2.76,0 -5,-2.24 -5,-5 0,-2.76 2.24,-5 5,-5 2.76,0 5,2.24 5,5 z"
         id="path967-9" />
    </marker>
    <inkscape:path-effect
       only_selected="false"
       apply_with_weight="true"
       apply_no_weight="true"
       helper_size="0"
       steps="2"
       weight="33.333333"
       is_visible="true"
       id="path-effect986-7"
       effect="bspline" />
    <inkscape:path-effect
       only_selected="false"
       apply_with_weight="true"
       apply_no_weight="true"
       helper_size="0"
       steps="2"
       weight="33.333333"
       is_visible="true"
       id="path-effect982-9"
       effect="bspline" />
    <inkscape:path-effect
       effect="bspline"
       id="path-effect978-4"
       is_visible="true"
       weight="33.333333"
       steps="2"
       helper_size="0"
       apply_no_weight="true"
       apply_with_weight="true"
       only_selected="false" />
    <inkscape:path-effect
       only_selected="false"
       apply_with_weight="true"
       apply_no_weight="true"
       helper_size="0"
       steps="2"
       weight="33.333333"
       is_visible="true"
       id="path-effect964-3"
       effect="bspline" />
    <inkscape:path-effect
       only_selected="false"
       apply_with_weight="true"
       apply_no_weight="true"
       helper_size="0"
       steps="2"
       weight="33.333333"
       is_visible="true"
       id="path-effect897-8"
       effect="bspline" />
    <inkscape:path-effect
       only_selected="false"
       apply_with_weight="true"
       apply_no_weight="true"
       helper_size="0"
       steps="2"
       weight="33.333333"
       is_visible="true"
       id="path-effect893-8"
       effect="bspline" />
    <inkscape:path-effect
       is_visible="true"
       id="path-effect1766-84"
       effect="spiro" />
    <inkscape:path-effect
       is_visible="true"
       id="path-effect1762-2"
       effect="spiro" />
    <marker
       inkscape:isstock="true"
       style="overflow:visible"
       id="DotL-4"
       refX="0"
       refY="0"
       orient="auto"
       inkscape:stockid="DotL">
      <path
         inkscape:connector-curvature="0"
         transform="matrix(0.8,0,0,0.8,5.92,0.8)"
         style="fill:#000000;fill-opacity:1;fill-rule:evenodd;stroke:#000000;stroke-width:1.00000003pt;stroke-opacity:1"
         d="m -2.5,-1 c 0,2.76 -2.24,5 -5,5 -2.76,0 -5,-2.24 -5,-5 0,-2.76 2.24,-5 5,-5 2.76,0 5,2.24 5,5 z"
         id="path967-6" />
    </marker>
  </defs>
  <sodipodi:namedview
     id="base"
     pagecolor="#ffffff"
     bordercolor="#666666"
     borderopacity="1.0"
     inkscape:pageopacity="0.0"
     inkscape:pageshadow="2"
     inkscape:zoom="11.313709"
     inkscape:cx="8.2661145"
     inkscape:cy="17.411671"
     inkscape:document-units="mm"
     inkscape:current-layer="g5034"
     showgrid="false"
     inkscape:window-width="958"
     inkscape:window-height="1008"
     inkscape:window-x="-7"
     inkscape:window-y="0"
     inkscape:window-maximized="0" />
  <metadata
     id="metadata5">
    <rdf:RDF>
      <cc:Work
         rdf:about="">
        <dc:format>image/svg+xml</dc:format>
        <dc:type
           rdf:resource="http://purl.org/dc/dcmitype/StillImage" />
        <dc:title />
      </cc:Work>
    </rdf:RDF>
  </metadata>
  <g
     inkscape:label="Layer 1"
     inkscape:groupmode="layer"
     id="layer1"
     transform="translate(-113.77924,-130.71634)">
    <g
       id="layer2"
       inkscape:label="Layer 2"
       transform="translate(113.87354,123.28462)" />
    <g
       id="g5034"
       transform="translate(-0.13229207,7.4083386)">
      <circle
         style="opacity:1;fill:#ffff00;fill-opacity:1;stroke:#000000;stroke-width:0.2;stroke-miterlimit:4;stroke-dasharray:none;stroke-opacity:1"
         id="path834"
         cx="116.87633"
         cy="126.2728"
         r="2.8647954" />
      <path
         style="fill:#000000;stroke-width:0.00562593"
         d="m 115.81569,126.2719 c -0.17955,-0.0129 -0.31773,-0.0726 -0.42458,-0.18371 -0.10143,-0.10543 -0.15807,-0.2188 -0.18744,-0.37517 -0.0135,-0.0701 -0.0203,-0.39945 -0.01,-0.45516 0.0123,-0.0614 0.0289,-0.0923 0.0712,-0.12736 0.0418,-0.0347 0.0829,-0.0506 0.15203,-0.0589 0.0517,-0.007 0.91617,-0.007 0.96804,0 0.0691,0.008 0.10996,0.0242 0.15203,0.0589 0.0711,0.0588 0.0793,0.0968 0.0748,0.34655 -0.002,0.19333 -0.01,0.24145 -0.0388,0.34064 -0.0536,0.17839 -0.19234,0.33537 -0.35738,0.40446 -0.0977,0.0409 -0.25333,0.0602 -0.40003,0.0497 z"
         id="path939"
         inkscape:connector-curvature="0" />
      <path
         inkscape:connector-curvature="0"
         id="path956"
         d="m 117.72377,126.2719 c -0.17953,-0.0129 -0.31772,-0.0726 -0.42456,-0.18366 -0.10131,-0.1054 -0.15807,-0.21874 -0.18743,-0.37507 -0.0135,-0.0701 -0.0203,-0.39934 -0.01,-0.45504 0.0122,-0.0614 0.0287,-0.0923 0.0712,-0.12733 0.0419,-0.0347 0.0829,-0.0506 0.15202,-0.0589 0.0518,-0.007 0.91611,-0.007 0.96797,0 0.0691,0.008 0.11003,0.0242 0.15202,0.0589 0.0711,0.0588 0.0793,0.0968 0.0748,0.34646 -0.002,0.19328 -0.01,0.24139 -0.0388,0.34055 -0.0536,0.17834 -0.19233,0.33528 -0.35734,0.40435 -0.0976,0.0409 -0.25333,0.0602 -0.40002,0.0497 z"
         style="fill:#000000;stroke-width:0.00562497" />
      <path
         style="fill:none;stroke:#000000;stroke-width:0.22;stroke-linecap:butt;stroke-linejoin:miter;stroke-miterlimit:4;stroke-dasharray:none;stroke-opacity:1"
         d="m 113.33753,125.86766 c 0,0 1.43041,-1.11621 1.43041,-1.11621"
         id="path962"
         inkscape:connector-curvature="0"
         inkscape:path-effect="#path-effect964-3"
         inkscape:original-d="m 113.33753,125.86766 1.43041,-1.11621"
         transform="matrix(1.0105613,0,0,1.0105613,-0.5114478,-0.8226164)" />
      <path
         transform="matrix(-1.0105613,0,0,1.0105613,234.22823,-0.8226164)"
         inkscape:original-d="m 113.33753,125.86766 1.43041,-1.11621"
         inkscape:path-effect="#path-effect978-4"
         inkscape:connector-curvature="0"
         id="path976"
         d="m 113.33753,125.86766 c 0,0 1.43041,-1.11621 1.43041,-1.11621"
         style="fill:none;stroke:#000000;stroke-width:0.22;stroke-linecap:butt;stroke-linejoin:miter;stroke-miterlimit:4;stroke-dasharray:none;stroke-opacity:1" />
      <g
         id="g1004"
         transform="matrix(0.76522102,0,0,1,27.970099,0.40264917)">
        <path
           transform="translate(0.00342481,0.08211989)"
           inkscape:original-d="m 115.69787,124.74164 h 0.87698"
           inkscape:path-effect="#path-effect986-7"
           inkscape:connector-curvature="0"
           id="path984"
           d="m 115.69787,124.74164 c 0,0 0.87698,0 0.87698,0"
           style="fill:none;stroke:#000000;stroke-width:0.16500001;stroke-linecap:butt;stroke-linejoin:miter;stroke-miterlimit:4;stroke-dasharray:none;stroke-opacity:1" />
        <path
           inkscape:connector-curvature="0"
           id="path996"
           d="m 115.77786,125.03953 c 0,0 -0.006,-0.1924 0.36852,-0.1924"
           style="fill:none;stroke:#000000;stroke-width:0.11733888;stroke-linecap:butt;stroke-linejoin:miter;stroke-miterlimit:4;stroke-dasharray:none;stroke-opacity:1" />
        <path
           style="fill:none;stroke:#000000;stroke-width:0.11733888;stroke-linecap:butt;stroke-linejoin:miter;stroke-miterlimit:4;stroke-dasharray:none;stroke-opacity:1"
           d="m 116.53283,125.03953 c 0,0 0.006,-0.1924 -0.36852,-0.1924"
           id="path998"
           inkscape:connector-curvature="0" />
      </g>
    </g>
    <path
       id="path1894-2-8"
       style="fill:none;stroke:#000000;stroke-width:0.25;stroke-linecap:round;stroke-linejoin:round;stroke-miterlimit:4;stroke-dasharray:none;stroke-opacity:1"
       d="m 117.92306,134.53083 c 0,0 -0.32895,0.56492 -0.99757,0.56492 m -1.32057,-0.56492 c 0,0 0.32895,0.56492 0.99757,0.56492 h 0.323"
       inkscape:connector-curvature="0" />
  </g>
</svg>
